<mxfile host="app.diagrams.net" modified="2023-04-17T13:06:06.473Z" agent="Mozilla/5.0 (Macintosh; Intel Mac OS X 10_15_7) AppleWebKit/605.1.15 (KHTML, like Gecko) Version/16.3 Safari/605.1.15" etag="Le40ZCVlDiyESkgfoOqO" version="21.1.8" type="github">
  <diagram name="Page-1" id="vmRUkB8Ht7hPRd6HfnEO">
    <mxGraphModel dx="954" dy="647" grid="1" gridSize="10" guides="1" tooltips="1" connect="1" arrows="1" fold="1" page="1" pageScale="1" pageWidth="827" pageHeight="1169" math="0" shadow="0">
      <root>
        <mxCell id="0" />
        <mxCell id="1" parent="0" />
        <mxCell id="KrvHM5VlppT7nD_sBOFR-35" style="edgeStyle=orthogonalEdgeStyle;rounded=0;orthogonalLoop=1;jettySize=auto;html=1;exitX=1;exitY=0.5;exitDx=0;exitDy=0;entryX=0;entryY=0.5;entryDx=0;entryDy=0;startArrow=none;startFill=0;endArrow=classic;endFill=1;" parent="1" source="KrvHM5VlppT7nD_sBOFR-1" target="KrvHM5VlppT7nD_sBOFR-2" edge="1">
          <mxGeometry relative="1" as="geometry" />
        </mxCell>
        <mxCell id="KrvHM5VlppT7nD_sBOFR-1" value="Audio In" style="text;html=1;strokeColor=none;fillColor=none;align=center;verticalAlign=middle;whiteSpace=wrap;rounded=0;" parent="1" vertex="1">
          <mxGeometry x="10" y="233.75" width="60" height="30" as="geometry" />
        </mxCell>
        <mxCell id="NZMBhhaRQnhIdLQGo8B3-2" style="edgeStyle=orthogonalEdgeStyle;rounded=0;orthogonalLoop=1;jettySize=auto;html=1;exitX=1;exitY=0.5;exitDx=0;exitDy=0;entryX=0;entryY=0.5;entryDx=0;entryDy=0;" edge="1" parent="1" source="KrvHM5VlppT7nD_sBOFR-2" target="KrvHM5VlppT7nD_sBOFR-4">
          <mxGeometry relative="1" as="geometry" />
        </mxCell>
        <mxCell id="NZMBhhaRQnhIdLQGo8B3-3" style="edgeStyle=orthogonalEdgeStyle;rounded=0;orthogonalLoop=1;jettySize=auto;html=1;exitX=1;exitY=0.5;exitDx=0;exitDy=0;entryX=0;entryY=0.5;entryDx=0;entryDy=0;" edge="1" parent="1" source="KrvHM5VlppT7nD_sBOFR-2" target="KrvHM5VlppT7nD_sBOFR-7">
          <mxGeometry relative="1" as="geometry" />
        </mxCell>
        <mxCell id="NZMBhhaRQnhIdLQGo8B3-4" style="edgeStyle=orthogonalEdgeStyle;rounded=0;orthogonalLoop=1;jettySize=auto;html=1;exitX=1;exitY=0.5;exitDx=0;exitDy=0;entryX=0;entryY=0.5;entryDx=0;entryDy=0;" edge="1" parent="1" source="KrvHM5VlppT7nD_sBOFR-2" target="KrvHM5VlppT7nD_sBOFR-6">
          <mxGeometry relative="1" as="geometry" />
        </mxCell>
        <mxCell id="KrvHM5VlppT7nD_sBOFR-2" value="AudioCapture" style="rounded=1;whiteSpace=wrap;html=1;" parent="1" vertex="1">
          <mxGeometry x="90" y="218.75" width="120" height="60" as="geometry" />
        </mxCell>
        <mxCell id="NZMBhhaRQnhIdLQGo8B3-1" style="edgeStyle=orthogonalEdgeStyle;rounded=0;orthogonalLoop=1;jettySize=auto;html=1;exitX=0.5;exitY=0;exitDx=0;exitDy=0;entryX=0.5;entryY=1;entryDx=0;entryDy=0;startArrow=classic;startFill=1;dashed=1;" edge="1" parent="1" source="KrvHM5VlppT7nD_sBOFR-3" target="KrvHM5VlppT7nD_sBOFR-2">
          <mxGeometry relative="1" as="geometry" />
        </mxCell>
        <mxCell id="KrvHM5VlppT7nD_sBOFR-3" value="PingPongBuffer" style="rounded=1;whiteSpace=wrap;html=1;" parent="1" vertex="1">
          <mxGeometry x="90" y="320" width="120" height="62.5" as="geometry" />
        </mxCell>
        <mxCell id="KrvHM5VlppT7nD_sBOFR-30" style="edgeStyle=orthogonalEdgeStyle;rounded=0;orthogonalLoop=1;jettySize=auto;html=1;exitX=1;exitY=0.5;exitDx=0;exitDy=0;entryX=0;entryY=0.5;entryDx=0;entryDy=0;startArrow=none;startFill=0;endArrow=classic;endFill=1;verticalAlign=top;" parent="1" source="KrvHM5VlppT7nD_sBOFR-4" target="KrvHM5VlppT7nD_sBOFR-11" edge="1">
          <mxGeometry relative="1" as="geometry">
            <Array as="points">
              <mxPoint x="520" y="168.75" />
              <mxPoint x="520" y="248.75" />
            </Array>
          </mxGeometry>
        </mxCell>
        <mxCell id="KrvHM5VlppT7nD_sBOFR-40" value="Colour" style="edgeLabel;html=1;align=center;verticalAlign=middle;resizable=0;points=[];fontSize=11;" parent="KrvHM5VlppT7nD_sBOFR-30" vertex="1" connectable="0">
          <mxGeometry x="-0.3545" y="-2" relative="1" as="geometry">
            <mxPoint x="-11" y="-2" as="offset" />
          </mxGeometry>
        </mxCell>
        <mxCell id="KrvHM5VlppT7nD_sBOFR-4" value="GenreClassifier" style="rounded=1;whiteSpace=wrap;html=1;" parent="1" vertex="1">
          <mxGeometry x="280" y="138.75" width="120" height="60" as="geometry" />
        </mxCell>
        <mxCell id="KrvHM5VlppT7nD_sBOFR-32" style="edgeStyle=orthogonalEdgeStyle;rounded=0;orthogonalLoop=1;jettySize=auto;html=1;exitX=1;exitY=0.5;exitDx=0;exitDy=0;entryX=0;entryY=0.5;entryDx=0;entryDy=0;startArrow=none;startFill=0;endArrow=classic;endFill=1;" parent="1" source="KrvHM5VlppT7nD_sBOFR-6" target="KrvHM5VlppT7nD_sBOFR-11" edge="1">
          <mxGeometry relative="1" as="geometry">
            <Array as="points">
              <mxPoint x="520" y="328.75" />
              <mxPoint x="520" y="248.75" />
            </Array>
          </mxGeometry>
        </mxCell>
        <mxCell id="KrvHM5VlppT7nD_sBOFR-42" value="Big LED Brightness" style="edgeLabel;html=1;align=center;verticalAlign=middle;resizable=0;points=[];fontSize=11;" parent="KrvHM5VlppT7nD_sBOFR-32" vertex="1" connectable="0">
          <mxGeometry x="-0.3364" y="-5" relative="1" as="geometry">
            <mxPoint x="-13" y="-5" as="offset" />
          </mxGeometry>
        </mxCell>
        <mxCell id="KrvHM5VlppT7nD_sBOFR-6" value="EnvelopeFollower" style="rounded=1;whiteSpace=wrap;html=1;" parent="1" vertex="1">
          <mxGeometry x="280" y="298.75" width="120" height="60" as="geometry" />
        </mxCell>
        <mxCell id="KrvHM5VlppT7nD_sBOFR-31" style="edgeStyle=orthogonalEdgeStyle;rounded=0;orthogonalLoop=1;jettySize=auto;html=1;exitX=1;exitY=0.5;exitDx=0;exitDy=0;entryX=0;entryY=0.5;entryDx=0;entryDy=0;startArrow=none;startFill=0;endArrow=classic;endFill=1;" parent="1" source="KrvHM5VlppT7nD_sBOFR-7" target="KrvHM5VlppT7nD_sBOFR-11" edge="1">
          <mxGeometry relative="1" as="geometry" />
        </mxCell>
        <mxCell id="KrvHM5VlppT7nD_sBOFR-41" value="Matrix" style="edgeLabel;html=1;align=center;verticalAlign=middle;resizable=0;points=[];fontSize=11;" parent="KrvHM5VlppT7nD_sBOFR-31" vertex="1" connectable="0">
          <mxGeometry x="-0.3143" y="-2" relative="1" as="geometry">
            <mxPoint x="12" y="-2" as="offset" />
          </mxGeometry>
        </mxCell>
        <mxCell id="KrvHM5VlppT7nD_sBOFR-7" value="FFTProcessor" style="rounded=1;whiteSpace=wrap;html=1;" parent="1" vertex="1">
          <mxGeometry x="280" y="218.75" width="120" height="60" as="geometry" />
        </mxCell>
        <mxCell id="KrvHM5VlppT7nD_sBOFR-34" style="edgeStyle=orthogonalEdgeStyle;rounded=0;orthogonalLoop=1;jettySize=auto;html=1;exitX=1;exitY=0.5;exitDx=0;exitDy=0;entryX=0;entryY=0.5;entryDx=0;entryDy=0;startArrow=none;startFill=0;endArrow=classic;endFill=1;" parent="1" source="KrvHM5VlppT7nD_sBOFR-11" target="KrvHM5VlppT7nD_sBOFR-33" edge="1">
          <mxGeometry relative="1" as="geometry" />
        </mxCell>
        <mxCell id="KrvHM5VlppT7nD_sBOFR-11" value="Visualiser" style="rounded=1;whiteSpace=wrap;html=1;verticalAlign=middle;fillColor=none;" parent="1" vertex="1">
          <mxGeometry x="540" y="220" width="120" height="57.5" as="geometry" />
        </mxCell>
        <mxCell id="KrvHM5VlppT7nD_sBOFR-33" value="SynaesthetiQ" style="rounded=1;whiteSpace=wrap;html=1;verticalAlign=middle;fillColor=none;" parent="1" vertex="1">
          <mxGeometry x="680" y="220" width="120" height="57.5" as="geometry" />
        </mxCell>
        <mxCell id="KrvHM5VlppT7nD_sBOFR-38" style="edgeStyle=orthogonalEdgeStyle;rounded=0;orthogonalLoop=1;jettySize=auto;html=1;exitX=0.5;exitY=1;exitDx=0;exitDy=0;entryX=0.5;entryY=0;entryDx=0;entryDy=0;dashed=1;fontSize=11;startArrow=classic;startFill=1;endArrow=classic;endFill=1;" parent="1" source="KrvHM5VlppT7nD_sBOFR-37" target="KrvHM5VlppT7nD_sBOFR-4" edge="1">
          <mxGeometry relative="1" as="geometry" />
        </mxCell>
        <mxCell id="KrvHM5VlppT7nD_sBOFR-37" value="GenrePredictionServer" style="rounded=1;whiteSpace=wrap;html=1;fontSize=11;" parent="1" vertex="1">
          <mxGeometry x="280" y="40" width="120" height="60" as="geometry" />
        </mxCell>
      </root>
    </mxGraphModel>
  </diagram>
</mxfile>
